<svg xmlns="http://www.w3.org/2000/svg" width="36" height="36" viewBox="0 0 36 36">
    <path fill="#4A4A4A" fill-rule="evenodd" d="M16.718 35a1 1 0 0 1-1.001-1V9.382L11.8 23.57a.999.999 0 0 1-1.962-.201l-.643-9.858-1.39 2.668a1 1 0 0 1-.887.537h-3.92a1 1 0 1 1 0-2h3.314l2.76-5.299a.992.992 0 0 1 1.094-.516c.44.092.763.466.792.913l.49 7.514 4.304-15.594A1 1 0 0 1 17.717 2v24.789l3.29-11.637a1 1 0 0 1 .963-.728h1.678l3.532-8.152a1.008 1.008 0 0 1 1.112-.584c.462.092.798.494.806.964l.21 12.401 1.66-4.011a1 1 0 0 1 .924-.618h2.335a1 1 0 1 1 0 2H32.56l-3.246 7.846a1 1 0 1 1-1.924-.365l-.214-12.594-1.954 4.511a1 1 0 0 1-.918.602h-1.577l-5.048 17.848a1 1 0 0 1-.961.728"/>
</svg>
