<svg xmlns="http://www.w3.org/2000/svg" width="36" height="36" viewBox="0 0 36 36">
    <g fill="#4A4A4A" fill-rule="evenodd">
        <path d="M15.905 11.188a2.41 2.41 0 0 0-2.146 1.32c-.249.499-.524 1.523.42 2.772.73.965 3.21 3.091 4.66 4.287 1.193-1.028 3.755-3.259 4.791-4.367.703-.751.897-1.556.562-2.331-.397-.916-1.426-1.556-2.5-1.556-.765 0-1.496.326-2.114.942a1 1 0 0 1-1.412 0c-.7-.698-1.483-1.067-2.26-1.067m2.946 10.683c-.22 0-.444-.074-.628-.222-.455-.367-4.484-3.632-5.64-5.163-1.148-1.517-1.378-3.337-.617-4.868a4.428 4.428 0 0 1 3.938-2.43c.763 0 1.846.197 2.976 1.044a4.779 4.779 0 0 1 2.811-.919c1.877 0 3.62 1.11 4.335 2.761.657 1.517.316 3.155-.937 4.493-1.442 1.543-5.422 4.923-5.59 5.066a.998.998 0 0 1-.648.238"/>
        <path d="M3 32.576a1 1 0 0 1-1-1V9.158a5.123 5.123 0 0 1 5.117-5.117l25.881-.04H33a1 1 0 0 1 .002 2l-25.883.04A3.12 3.12 0 0 0 4 9.158V28.78l3.528-4.304c.191-.23.474-.365.774-.365h20.582A3.12 3.12 0 0 0 32 20.993v-9.886a1 1 0 1 1 2 0v9.886a5.123 5.123 0 0 1-5.116 5.118H8.775l-5.002 6.1a1 1 0 0 1-.773.365"/>
    </g>
</svg>
