<svg xmlns="http://www.w3.org/2000/svg" xmlns:xlink="http://www.w3.org/1999/xlink" width="36" height="36" viewBox="0 0 36 36">
    <defs>
        <path id="a" d="M34.004.254V34H0V.254z"/>
    </defs>
    <g fill="none" fill-rule="evenodd">
        <g transform="translate(1 .746)">
            <mask id="b" fill="#fff">
                <use xlink:href="#a"/>
            </mask>
            <path fill="#4A4A4A" d="M19.61 30.855a12.058 12.058 0 0 1-5.14 1.146 12.262 12.262 0 0 1-10.624-6.178l3-1.393c1.603 2.63 4.488 4.293 7.616 4.293a8.823 8.823 0 0 0 3.76-.837l12.066-5.634 1.386 2.97-12.065 5.633zM2.741 15.105a12.107 12.107 0 0 1 6.295-6.888l12.066-5.634 1.388 2.971-12.065 5.634a8.848 8.848 0 0 0-4.605 5.036 8.834 8.834 0 0 0 .134 6.413l-2.973 1.381a12.1 12.1 0 0 1-.24-8.914zM33.91 25.282L31.677 20.5a1.002 1.002 0 0 0-1.329-.483l-12.972 6.056a6.84 6.84 0 0 1-2.914.65 6.953 6.953 0 0 1-6.28-3.99l-.25-.54a6.869 6.869 0 0 1-.232-5.287 6.867 6.867 0 0 1 3.572-3.905l12.971-6.057a1 1 0 0 0 .483-1.33L22.493.832a1 1 0 0 0-1.329-.483L8.191 6.405A14.096 14.096 0 0 0 .862 14.42a14.098 14.098 0 0 0 .475 10.852l.251.538c2.322 4.974 7.378 8.19 12.881 8.19 2.078 0 4.092-.45 5.986-1.334l12.971-6.057a1 1 0 0 0 .484-1.328z" mask="url(#b)"/>
        </g>
        <path fill="#4A4A4A" d="M18.954 16.803a1 1 0 0 0 1.117 1.659l5.218-3.514.302 2.03a1 1 0 0 0 1.584.658l6.133-4.533a1 1 0 1 0-1.19-1.608l-4.793 3.543-.29-1.953a1.001 1.001 0 0 0-1.548-.682l-6.533 4.4z"/>
    </g>
</svg>
