<svg xmlns="http://www.w3.org/2000/svg" xmlns:xlink="http://www.w3.org/1999/xlink" width="129" height="135" viewBox="0 0 129 135">
    <defs>
        <path id="a" d="M.242 0h115.064v135H.242z"/>
        <path id="c" d="M0 .744v103.554h103.536V.744H0z"/>
        <path id="e" d="M0 135h128.306V0H0z"/>
    </defs>
    <g fill="none" fill-rule="evenodd">
        <g transform="translate(13)">
            <mask id="b" fill="#fff">
                <use xlink:href="#a"/>
            </mask>
            <path fill="#D7D7D7" d="M114.807 84.96c-.37-1.255-1.556-5.434-3.155-11.064-3.572-12.582-9.55-33.64-12.682-44.112C93.561 11.69 74.107 0 49.41 0 22.757 0 .241 21.676.241 47.333c0 13.592 6.761 27.492 7.05 28.077l4.485-2.207c-.065-.133-6.535-13.43-6.535-25.87C5.242 24.386 25.468 5 49.41 5 71.845 5 89.42 15.29 94.18 31.216c3.12 10.439 9.093 31.476 12.663 44.045 1.605 5.655 2.796 9.85 3.167 11.11.251.852.298 1.36.297 1.63-.063.006-.14.009-.23.009H96.408v17.657c0 4.135-3.365 7.5-7.5 7.5h-33.5v5H74.76L77.312 130h-52.26c.29-6.045.718-20.746-1.446-28.376l-4.81 1.364c2.472 8.717 1.132 29.139 1.118 29.344L19.735 135h63.77l-3.63-16.833h9.034c6.892 0 12.5-5.608 12.5-12.5V93.01h8.667c2.373 0 3.637-1.023 4.28-1.881 1.094-1.463 1.242-3.48.451-6.168" mask="url(#b)"/>
        </g>
        <g transform="translate(0 13)">
            <mask id="d" fill="#fff">
                <use xlink:href="#c"/>
            </mask>
            <path fill="#D7D7D7" d="M11.079 97.227L7.072 93.22l21.92-21.92 4.007 4.007-21.92 21.92zm30.288-81.671c6.327-6.328 14.739-9.812 23.688-9.812 8.948 0 17.36 3.484 23.688 9.812 13.062 13.062 13.062 34.314 0 47.376-6.328 6.327-14.74 9.812-23.688 9.812-8.95 0-17.361-3.485-23.688-9.812-13.062-13.062-13.062-34.314 0-47.376zm-5.068 55.979l3.363-3.363c7.027 6.185 15.947 9.572 25.393 9.572 10.283 0 19.952-4.005 27.223-11.277 15.01-15.011 15.01-39.436 0-54.447C85.007 4.748 75.338.744 65.055.744 54.77.744 45.103 4.748 37.83 12.02c-7.272 7.272-11.276 16.94-11.276 27.224 0 9.445 3.386 18.366 9.572 25.393L32.764 68l-3.772-3.772L0 93.22l11.079 11.078 28.99-28.991-3.77-3.772z" mask="url(#d)"/>
        </g>
        <mask id="f" fill="#fff">
            <use xlink:href="#e"/>
        </mask>
        <path fill="#D7D7D7" d="M62.576 58.5h5V29.833h-5zM62.576 71.167h5v-5h-5z" mask="url(#f)"/>
    </g>
</svg>
