<svg xmlns="http://www.w3.org/2000/svg" width="36" height="36" viewBox="0 0 36 36">
    <path fill="#4A4A4A" fill-rule="evenodd" d="M34.833 5.959a1.005 1.005 0 0 0-1.04-.958l-4.809.198c-.551.023-.98.489-.958 1.04.023.552.486.962 1.04.958l2.548-.105L20.36 19.836l-3.15-5.751a.998.998 0 0 0-.765-.513.98.98 0 0 0-.86.33L1.252 30.069a1 1 0 0 0 1.496 1.327l13.391-15.104 3.151 5.754a.999.999 0 0 0 1.627.182L32.941 8.613l.092 2.236a1 1 0 0 0 .998.959l.042-.001a.999.999 0 0 0 .958-1.04l-.198-4.808z"/>
</svg>
