<svg xmlns="http://www.w3.org/2000/svg" width="36" height="36" viewBox="0 0 36 36">
    <g fill="#4A90E2" fill-rule="evenodd">
        <path d="M25.454 35H9.688A5.696 5.696 0 0 1 4 29.31V6.688A5.695 5.695 0 0 1 9.688 1h9.501a1 1 0 0 1 1 1v7.688h6.143a1 1 0 1 1 0 2H19.19a1 1 0 0 1-1-1V3h-8.5A3.692 3.692 0 0 0 6 6.688V29.31A3.693 3.693 0 0 0 9.688 33h15.766a3.693 3.693 0 0 0 3.688-3.69V9.081l-5.829-6.283a1 1 0 0 1 1.467-1.36l6.096 6.571a1 1 0 0 1 .266.679V29.31A5.695 5.695 0 0 1 25.454 35"/>
        <path d="M9.541 22.64l.025 4.062.213-.001a2.018 2.018 0 0 0 1.435-.605c.38-.386.588-.895.584-1.436a2.035 2.035 0 0 0-2.029-2.02h-.228zm-.969 6.068c-.262 0-.515-.103-.703-.288a1.004 1.004 0 0 1-.297-.706l-.037-6.06a1 1 0 0 1 .993-1.006l1.212-.008c2.237 0 4.043 1.797 4.058 4.006a3.995 3.995 0 0 1-1.161 2.855 4.004 4.004 0 0 1-2.845 1.2l-1.213.007h-.007zM17.895 22.75c-.948 0-1.72.866-1.72 1.931s.772 1.931 1.72 1.931c.947 0 1.72-.866 1.72-1.931s-.772-1.931-1.72-1.931m0 5.862c-2.05 0-3.72-1.763-3.72-3.931 0-2.167 1.67-3.931 3.72-3.931 2.051 0 3.72 1.764 3.72 3.931 0 2.168-1.668 3.931-3.72 3.931M25.563 28.612c-2.052 0-3.721-1.764-3.721-3.932 0-2.167 1.669-3.93 3.72-3.93.825 0 1.605.28 2.26.808a1 1 0 0 1-1.258 1.555 1.587 1.587 0 0 0-1.002-.363c-.949 0-1.72.866-1.72 1.93 0 1.066.771 1.932 1.72 1.932.49 0 .942-.226 1.273-.635a1 1 0 1 1 1.555 1.258c-.707.875-1.738 1.377-2.828 1.377"/>
    </g>
</svg>
