<svg xmlns="http://www.w3.org/2000/svg" xmlns:xlink="http://www.w3.org/1999/xlink" width="16" height="16" viewBox="0 0 16 16">
    <defs>
        <path id="a" d="M0 .9V12h11.099V.9H0z"/>
    </defs>
    <g fill="none" fill-rule="evenodd">
        <g transform="translate(0 2.973)">
            <mask id="b" fill="#fff">
                <use xlink:href="#a"/>
            </mask>
            <path fill="#4A4A4A" d="M1.404 8.528l-.157 2.225 2.224-.157 6.18-6.178-2.068-2.07-6.179 6.18zM.6 12a.6.6 0 0 1-.598-.642L.222 8.22a.606.606 0 0 1 .175-.382L7.16 1.076a.6.6 0 0 1 .85 0l2.915 2.917a.602.602 0 0 1 0 .849L4.16 11.604a.597.597 0 0 1-.382.174l-3.138.22C.628 12 .613 12 .6 12z" mask="url(#b)"/>
        </g>
        <path fill="#4A4A4A" d="M9.802 3.103l2.067 2.068.786-.784c-.191-.393-.497-.942-.812-1.257-.44-.44-.928-.7-1.235-.834l-.806.807zm2.067 3.517a.599.599 0 0 1-.424-.176L8.529 3.527a.6.6 0 0 1 0-.848l1.502-1.503a.6.6 0 0 1 .583-.155c.045.013 1.136.318 2.078 1.26.684.685 1.18 1.877 1.236 2.01a.6.6 0 0 1-.132.651l-1.503 1.502a.595.595 0 0 1-.424.176z"/>
    </g>
</svg>
