<svg xmlns="http://www.w3.org/2000/svg" width="36" height="36" viewBox="0 0 36 36">
    <path fill="#4A4A4A" fill-rule="evenodd" d="M30.834 33.666H4a1 1 0 1 1 0-2h26.834a1 1 0 1 1 0 2zm-2.25-3.082a1 1 0 0 1-1-1V4a1 1 0 1 1 2 0v25.584a1 1 0 0 1-1 1zm-5.667 0a1 1 0 0 1-1-1V9.334a1 1 0 1 1 2 0v20.25a1 1 0 0 1-1 1zm-5.667 0a1 1 0 0 1-1-1V14.28a1 1 0 1 1 2 0v15.303a1 1 0 0 1-1 1zm-5.667-.001a1 1 0 0 1-1-1v-9.917a1 1 0 1 1 2 0v9.917a1 1 0 0 1-1 1zm-5.667 0a1 1 0 0 1-1-1V25a1 1 0 1 1 2 0v4.583a1 1 0 0 1-1 1z"/>
</svg>
