<svg xmlns="http://www.w3.org/2000/svg" width="64" height="64" viewBox="0 0 64 64">
    <path fill="#4A4A4A" fill-rule="evenodd" d="M49.871 64H14.898C8.338 64 3 58.659 3 52.095V1.5A1.5 1.5 0 0 1 4.5 0h46.37a1.5 1.5 0 0 1 1.5 1.5v47.322a1.5 1.5 0 0 1-3 0V3H6v49.095C6 57.005 9.992 61 14.898 61h34.973c4.906 0 8.898-3.995 8.898-8.905V16.337a1.5 1.5 0 0 1 3 0v35.758C61.77 58.659 56.432 64 49.871 64zm-9.72-49.54H12.791a1.5 1.5 0 1 1 0-3H40.15a1.5 1.5 0 0 1 0 3zm0 9.983H12.791a1.5 1.5 0 1 1 0-3H40.15a1.5 1.5 0 0 1 0 3zm0 9.983H12.791a1.5 1.5 0 1 1 0-3H40.15a1.5 1.5 0 0 1 0 3zm0 9.981H12.791a1.5 1.5 0 1 1 0-3H40.15a1.5 1.5 0 0 1 0 3z"/>
</svg>
