<svg xmlns="http://www.w3.org/2000/svg" width="36" height="36" viewBox="0 0 36 36">
    <g fill="#4A4A4A" fill-rule="evenodd">
        <path d="M12.337 20.345h5.538c-.86 2.558-3.332 4.41-6.24 4.41-3.62 0-6.562-2.868-6.562-6.392 0-3.528 2.943-6.396 6.563-6.396.674 0 1.335.1 1.972.293l3.125-2.708C15.227 8.572 12.723 8 11.636 8 5.772 8 1 12.649 1 18.363c0 5.71 4.772 10.359 10.636 10.359 5.864 0 10.635-4.648 10.635-10.36 0-1.097-.136-1.986-.136-1.986h-9.798v3.969zM35 16.297h-3.198v-3.488H28.74v3.488h-3.27v2.983h3.27v3.29h3.062v-3.29H35z"/>
    </g>
</svg>
