<svg xmlns="http://www.w3.org/2000/svg" xmlns:xlink="http://www.w3.org/1999/xlink" width="36" height="36" viewBox="0 0 36 36">
    <defs>
        <path id="a" d="M11.128 0H0v36h22.256V0z"/>
    </defs>
    <g fill="none" fill-rule="evenodd">
        <g transform="translate(7)">
            <mask id="b" fill="#fff">
                <use xlink:href="#a"/>
            </mask>
            <path fill="#4A4A4A" d="M16.588 36h-9.63a1 1 0 1 1 0-2h8.63v-3.718H5.27a1 1 0 0 1-1-1v-5.31c0-.089.01-.177.035-.263 0-.002.464-2.217-2.28-5.881C.7 16.06 0 13.807 0 11.312 0 5.075 4.992 0 11.128 0s11.128 5.075 11.128 11.312c0 2.495-.701 4.748-2.026 6.516-2.743 3.664-2.28 5.879-2.274 5.901a1.01 1.01 0 0 1-.73 1.203.992.992 0 0 1-1.205-.697c-.084-.31-.726-3.151 2.608-7.606 1.049-1.4 1.627-3.288 1.627-5.317C20.256 6.177 16.16 2 11.128 2S2 6.177 2 11.312c0 2.029.578 3.917 1.626 5.316 3.02 4.033 2.779 6.744 2.644 7.452v4.202h10.318a1 1 0 0 1 1 1V35a1 1 0 0 1-1 1" mask="url(#b)"/>
        </g>
        <path fill="#4A4A4A" d="M11.575 12.312a1 1 0 0 1-1-1c0-4.21 3.388-7.636 7.553-7.636a1 1 0 0 1 0 2c-3.062 0-5.553 2.529-5.553 5.636a1 1 0 0 1-1 1"/>
    </g>
</svg>
