<svg xmlns="http://www.w3.org/2000/svg" width="36" height="36" viewBox="0 0 36 36">
    <g fill="#4A4A4A" fill-rule="evenodd">
        <path d="M18 34C9.178 34 2 26.822 2 18S9.178 2 18 2c1.078 0 2.158.108 3.21.321a1.001 1.001 0 0 1-.397 1.961A14.187 14.187 0 0 0 18 4C10.28 4 4 10.28 4 18s6.28 14 14 14 14-6.28 14-14c0-4.6-2.262-8.908-6.05-11.527a1 1 0 0 1 1.137-1.645A16.014 16.014 0 0 1 34 18c0 8.822-7.178 16-16 16"/>
        <path d="M18 27.519a9.493 9.493 0 0 1-6.733-2.784c-3.714-3.713-3.714-9.756 0-13.47 3.712-3.71 9.753-3.71 13.466 0a1 1 0 1 1-1.414 1.415c-2.933-2.932-7.706-2.932-10.638 0-2.934 2.934-2.934 7.707 0 10.64 2.932 2.932 7.705 2.932 10.638 0a.999.999 0 1 1 1.414 1.415A9.493 9.493 0 0 1 18 27.519"/>
    </g>
</svg>
