<?xml version="1.0" encoding="UTF-8"?>
<svg width="100px" height="45px" viewBox="0 0 100 45" version="1.1" xmlns="http://www.w3.org/2000/svg" xmlns:xlink="http://www.w3.org/1999/xlink">
    <!-- Generator: Sketch 47 (45396) - http://www.bohemiancoding.com/sketch -->
    <title>ALS-logo</title>
    <desc>Created with Sketch.</desc>
    <defs>
        <linearGradient x1="368.568898%" y1="2.94971298%" x2="-16.996507%" y2="2.94971298%" id="linearGradient-1">
            <stop stop-color="#00B140" offset="0%"></stop>
            <stop stop-color="#BCDA00" offset="16.5876116%"></stop>
            <stop stop-color="#BCDA00" offset="59.7138074%"></stop>
            <stop stop-color="#00B140" offset="100%"></stop>
        </linearGradient>
    </defs>
    <g id="UI-kit" stroke="none" stroke-width="1" fill="none" fill-rule="evenodd">
        <g id="UI-Master-320" transform="translate(-15.000000, -4383.000000)" fill="url(#linearGradient-1)">
            <g id="Group-74-Copy" transform="translate(15.000000, 4382.000000)">
                <g id="ALS-logo" transform="translate(0.000000, 1.000000)">
                    <path d="M0,34 L100,34 L100,0 L0,0 L0,34 Z M1,33 L99,33 L99,1 L1,1 L1,33 Z" id="Fill-1"></path>
                    <path d="M59,30 L63,30 L63,29 L61,29 L61,16 L62.336,16 L62.336,15 L61,15 L61,5 L63,5 L63,4 L59,4 L59,30 Z M28,16 C28,16.805 28.019,17 27.364,17 L26,17 L26,5 L26.839,4.984 C27.883,5 28,5.677 28,7 L28,16 Z M27.594,4 L24,4 L24,30 L26,30 L26,18 L27.331,18 C27.941,18 28,18.282 28,19 L28,30 L30,30 L29.989,20.11 C29.989,18.685 30.062,18.315 29.265,17.851 L29.265,17.248 C29.794,17.191 30,17.123 30,15.715 L30,7 C30,5.158 29.554,4 27.594,4 L27.594,4 Z M55,13.641 C55,14.732 55.028,14.944 54.449,15 L53,15 L52.986,5 L54.433,5 C54.899,5 55,5.216 55,5.792 L55,13.641 Z M55,28.104 C54.988,28.793 54.943,28.936 54.39,28.936 L52.987,28.936 L53,16 L54.406,16 C54.957,16 55,16.301 55,17.422 L55,28.104 Z M55.709,4 L51,4 L51,30 L54.94,30 C56.189,30 56.985,28.998 57,27.906 L57,17.631 C57,16.377 56.781,16.063 56.334,15.81 L56.334,15.246 C56.885,14.97 57,14.689 57,13.812 L57,5.582 C57,4.66 56.652,4 55.709,4 L55.709,4 Z M36.617,27.939 C35.948,27.939 35.411,28.472 35.411,29.13 C35.411,29.793 35.948,30.323 36.617,30.323 C37.284,30.323 37.822,29.793 37.822,29.13 C37.822,28.473 37.285,27.939 36.617,27.939 L36.617,27.939 Z M30.713,5 L32.379,5 L32.379,30 L34.24,30 L34.24,5 L35.841,5 L35.841,4 L30.713,4 L30.713,5 Z M46,30 L50,30 L50,29 L48,29 L48,16 L49.326,16 L49.326,15 L48,15 L48,5 L49.989,5 L49.989,4 L46,4 L46,30 Z M43,4 L41,4 L41,30 L45,30 L45,29 L43,29 L43,4 Z M18.333,21 L18.932,9.255 L19.23,6.099 L19.8,6.099 L20,9.255 L20,21 L18.333,21 Z M18,4 L16,30 L17.525,30 L18.261,22 L20,22 L20.226,30 L22.302,30 L20.85,4 L18,4 Z M72,30 L76,30 L76,29 L74,29 L74,16 L75.341,16 L75.341,15 L74,15 L74,5 L76,5 L76,4 L72,4 L72,30 Z M68,27.462 C68,28.785 68.06,29 67,29 L66,29 L66,5 L67,5 C68.06,5 68,5.216 68,6.537 L68,27.462 Z M67.569,4 L64,4 L64,30 L67.439,30 C69.415,30 70,28.84 70,27 L70,6.766 C70,4.924 69.545,4 67.569,4 L67.569,4 Z M80.649,22.75 L80.048,27.011 L79.799,27.011 L79.462,22.875 L78.811,4 L77,4 L78.499,30 L81.118,30 L83.6,4 L81.528,4 L80.649,22.75 Z" id="Fill-2"></path>
                    <path d="M16.901,38 L20.61,38 L20.745,38.315 L18.162,45 L17.307,44.812 L19.791,39 L16.901,39 L16.901,38 Z M11.731,39.329 L13.675,38.177 L14.242,38.177 L14.242,44.164 L15.439,44.38 L15.439,44.821 L12.153,44.821 L12.153,44.38 L13.35,44.164 L13.35,39.167 C13.359,39.158 11.892,39.708 11.892,39.708 L11.731,39.329 Z M7.939,38.698 C6.67,38.698 6.436,40.535 6.436,41.498 C6.436,42.462 6.67,44.308 7.939,44.308 C9.209,44.308 9.443,42.462 9.443,41.498 C9.443,40.535 9.209,38.698 7.939,38.698 L7.939,38.698 Z M7.939,44.974 C6.076,44.974 5.553,43.011 5.553,41.498 C5.553,39.986 6.075,38.023 7.939,38.023 C9.803,38.023 10.325,39.986 10.325,41.498 C10.325,43.011 9.803,44.974 7.939,44.974 L7.939,44.974 Z M2.962,39.851 C2.962,39.113 2.404,38.771 1.864,38.771 C1.378,38.771 0.864,39.032 0.477,39.347 L0.072,38.852 C0.54,38.33 1.305,38.024 1.989,38.024 C2.97,38.024 3.898,38.591 3.898,39.851 C3.898,41.391 2.125,43.092 1.107,44.029 L3.988,44.029 L3.988,44.821 L0,44.821 L0,44.173 C0.99,43.146 2.962,41.417 2.962,39.851 L2.962,39.851 Z" id="Fill-4"></path>
                </g>
            </g>
        </g>
    </g>
</svg>
