<svg xmlns="http://www.w3.org/2000/svg" xmlns:xlink="http://www.w3.org/1999/xlink" width="36" height="36" viewBox="0 0 36 36">
    <defs>
        <path id="a" d="M0 36V0h35.771v36z"/>
    </defs>
    <g fill="none" fill-rule="evenodd">
        <path fill="#4A4A4A" d="M22.748 13.243l2.91.786 2.137-2.128-.776-2.916-2.912-.786-2.134 2.128.775 2.916zm3.207 2.902c-.087 0-.175-.01-.261-.034l-4.025-1.088a1 1 0 0 1-.706-.708l-1.072-4.03a1 1 0 0 1 .26-.967l2.953-2.943a.998.998 0 0 1 .967-.257l4.028 1.087c.344.093.614.363.706.708l1.072 4.032a1 1 0 0 1-.261.965l-2.955 2.944c-.19.19-.445.291-.706.291z"/>
        <mask id="b" fill="#fff">
            <use xlink:href="#a"/>
        </mask>
        <path fill="#4A4A4A" d="M6.865 36a.996.996 0 0 1-.707-.293L.293 29.841a.999.999 0 0 1 0-1.414l5.52-5.522a15.816 15.816 0 0 1-1.682-7.084C4.131 7.097 11.227 0 19.951 0c1.543 0 3.08.227 4.565.675a1 1 0 0 1 .419 1.665l-7.548 7.547 2.221 6.468 6.504 2.253 7.413-7.412a1 1 0 0 1 1.672.444c.381 1.393.574 2.8.574 4.181 0 8.724-7.096 15.821-15.82 15.821-2.59 0-5.167-.646-7.45-1.868a1 1 0 0 1 .943-1.763 13.845 13.845 0 0 0 6.507 1.631c7.62 0 13.82-6.2 13.82-13.821 0-.629-.046-1.265-.138-1.904l-6.549 6.548a1 1 0 0 1-1.034.238l-7.556-2.618a.994.994 0 0 1-.618-.62l-2.582-7.519a.996.996 0 0 1 .238-1.032l6.721-6.72A13.774 13.774 0 0 0 19.951 2c-7.62 0-13.82 6.2-13.82 13.821 0 2.367.617 4.71 1.784 6.776a1 1 0 0 1-.164 1.199l-5.337 5.338 4.451 4.452 2.797-2.796a.999.999 0 1 1 1.414 1.414l-3.504 3.503a.996.996 0 0 1-.707.293" mask="url(#b)"/>
    </g>
</svg>
