<svg xmlns="http://www.w3.org/2000/svg" width="188" height="125" viewBox="0 0 188 125">
    <defs>
        <path id="a" d="M10.955 8.18L25.001 0l2.076 1.073-16.122 9.387-7.51-4.336 1.282-1.565 6.228 3.621zm0 4.514L28.932 2.28l1.547 1.43-19.524 11.353-9.453-5.542.883-1.788 8.57 4.961zm0 4.649L31.848 5.185l1.148 1.565-22.041 12.828L.309 13.409l.486-1.966 10.16 5.9zm0 4.514L34.056 8.448l.972 2.503c.648 1.848.972 3.784.972 5.81 0 2.028-.324 3.995-.972 5.901l-.442 1.208a18.592 18.592 0 0 1-3.842 5.811 17.775 17.775 0 0 1-5.743 3.845A17.484 17.484 0 0 1 17.979 35a17.29 17.29 0 0 1-7.024-1.474c-2.092-.895-3.991-2.177-5.699-3.845a17.638 17.638 0 0 1-3.842-5.811A18.536 18.536 0 0 1 0 16.761v-1.206l10.955 6.302z"/>
    </defs>
    <g fill="none" fill-rule="evenodd">
        <path fill="#D7D7D7" d="M31.25 5.455h125.5c4.136 0 7.5 3.364 7.5 7.5v4.5H23.75v-4.5c0-4.136 3.364-7.5 7.5-7.5m-10 93a2.5 2.5 0 0 0 2.5-2.5v-73.5h140.5v73.5a2.5 2.5 0 1 0 5 0v-83c0-6.893-5.607-12.5-12.5-12.5H31.25c-6.893 0-12.5 5.607-12.5 12.5v83a2.5 2.5 0 0 0 2.5 2.5"/>
        <path fill="#DBDBDB" d="M182.75 112.455c0 4.136-3.364 7.5-7.5 7.5H12.75c-4.136 0-7.5-3.364-7.5-7.5v-7h60v6.5a2.5 2.5 0 0 0 2.5 2.5h47.5a2.5 2.5 0 0 0 2.5-2.5v-6.5h65v7zm-112.5-3h42.5v-4h-42.5v4zm115-9H2.75a2.5 2.5 0 0 0-2.5 2.5v9.5c0 6.893 5.607 12.5 12.5 12.5h162.5c6.893 0 12.5-5.607 12.5-12.5v-9.5a2.5 2.5 0 0 0-2.5-2.5zM91.385 14.545a2.5 2.5 0 1 0 0-5 2.5 2.5 0 0 0 0 5"/>
        <path fill="#DBDBDB" d="M150.385 114.5a2.5 2.5 0 1 0 0-5 2.5 2.5 0 0 0 0 5M160.385 114.5a2.5 2.5 0 1 0 0-5 2.5 2.5 0 0 0 0 5M170.385 114.5a2.5 2.5 0 1 0 0-5 2.5 2.5 0 0 0 0 5"/>
    </g>
</svg>
