<svg xmlns="http://www.w3.org/2000/svg" xmlns:xlink="http://www.w3.org/1999/xlink" width="36" height="36" viewBox="0 0 36 36">
    <defs>
        <path id="a" d="M18.1 15H0V.605h18.1z"/>
    </defs>
    <g fill="none" fill-rule="evenodd">
        <path fill="#4A4A4A" d="M18.049 7.651a2.741 2.741 0 0 1 2.739 2.74 2.741 2.741 0 0 1-2.74 2.738 2.742 2.742 0 0 1-2.738-2.739 2.742 2.742 0 0 1 2.739-2.739m0 9.131a6.399 6.399 0 0 0 6.393-6.392A6.398 6.398 0 0 0 18.049 4a6.398 6.398 0 0 0-6.391 6.39 6.398 6.398 0 0 0 6.39 6.392"/>
        <g transform="translate(9 17)">
            <mask id="b" fill="#fff">
                <use xlink:href="#a"/>
            </mask>
            <path fill="#4A4A4A" d="M.542 1.196A1.933 1.933 0 0 0 .591 3.93a12.171 12.171 0 0 0 5.942 3.173l-4.597 4.596a1.933 1.933 0 1 0 2.733 2.735l4.38-4.379 4.38 4.38c.377.378.873.566 1.369.566a1.936 1.936 0 0 0 1.366-3.302l-4.6-4.596a12.182 12.182 0 0 0 5.944-3.173 1.933 1.933 0 1 0-2.686-2.78c-1.574 1.521-3.626 2.357-5.773 2.357-2.148 0-4.198-.836-5.772-2.358" mask="url(#b)"/>
        </g>
        <path fill="#4A4A4A" d="M12.277 18.148a1.937 1.937 0 0 0-2.735.048"/>
    </g>
</svg>
