<svg xmlns="http://www.w3.org/2000/svg" xmlns:xlink="http://www.w3.org/1999/xlink" width="36" height="36" viewBox="0 0 36 36">
    <defs>
        <path id="a" d="M0 17V0h27.143v34H0z"/>
    </defs>
    <g fill="none" fill-rule="evenodd">
        <g transform="translate(4 1)">
            <mask id="b" fill="#fff">
                <use xlink:href="#a"/>
            </mask>
            <path fill="#F95659" d="M26.876 7.009L20.78.439a1 1 0 0 0-1.466 1.359l5.829 6.283V28.31A3.694 3.694 0 0 1 21.454 32H5.689A3.693 3.693 0 0 1 2 28.31V5.689a3.693 3.693 0 0 1 3.689-3.69h8.5v7.69a1 1 0 0 0 1 1h7.143a1 1 0 1 0 0-2h-6.143V.999a1 1 0 0 0-1-1h-9.5A5.695 5.695 0 0 0 0 5.69v22.62A5.696 5.696 0 0 0 5.689 34h15.765a5.696 5.696 0 0 0 5.689-5.69V7.69c0-.252-.096-.495-.267-.68" mask="url(#b)"/>
        </g>
        <path fill="#F95659" d="M19 24.66a2.014 2.014 0 0 1-.584 1.436 2.021 2.021 0 0 1-1.435.604l-.207.001v-4.06l.197-.002c1.112 0 2.022.906 2.029 2.02zm-3.232-4.013a1 1 0 0 0-.994 1v6.061a1.004 1.004 0 0 0 1 1h.007l1.213-.008a4.008 4.008 0 0 0 2.845-1.199A3.997 3.997 0 0 0 21 24.645c-.015-2.209-1.821-4.006-4.058-4.006l-1.174.008zM12.067 23.644c0 .566-.459 1.027-1.023 1.027h-.695v-2.054h.695c.564 0 1.023.46 1.023 1.027zM9.35 20.617a1 1 0 0 0-1 1v6.118a1 1 0 1 0 2 0V26.67h.695a3.028 3.028 0 0 0 3.023-3.027 3.028 3.028 0 0 0-3.023-3.027H9.35zM26.197 22.587a1 1 0 0 0-.007-2h-.007l-3.335.02a1.001 1.001 0 0 0-.993 1.008l.02 2.975v.004l.02 3.139a1 1 0 0 0 1 .993h.006a1 1 0 0 0 .993-1.007l-.013-2.141 1.73-.011a.999.999 0 0 0-.008-2h-.007l-1.728.01-.006-.975 2.335-.015z"/>
    </g>
</svg>
