<svg xmlns="http://www.w3.org/2000/svg" xmlns:xlink="http://www.w3.org/1999/xlink" width="166" height="203" viewBox="0 0 166 203">
    <defs>
        <path id="a" d="M0 203h165.581V.224H.001z"/>
    </defs>
    <g fill="none" fill-rule="evenodd">
        <mask id="b" fill="#fff">
            <use xlink:href="#a"/>
        </mask>
        <path fill="#DBDBDB" d="M91.564 74.806c-4.185.524-7.476 2.951-9.438 4.801L71.856 62.82a10.981 10.981 0 0 0-6.84-4.977 10.968 10.968 0 0 0-8.355 1.317A10.974 10.974 0 0 0 51.684 66a10.99 10.99 0 0 0 1.324 8.366l22.294 36.038c-2.358 1.133-7.234 4.47-8.972 13.163-.034.172-.055.356-.08.534H35.281v-94.42h58.666v45.24a7.335 7.335 0 0 0-2.383-.115zm-16.73 73.751H32.78c-4.134 0-7.5-3.364-7.5-7.5V12.724c0-4.136 3.366-7.5 7.5-7.5h63.334c4.136 0 7.5 3.364 7.5 7.5v64.258a23.833 23.833 0 0 0-3.561 1.826c-.346-.424-.716-.82-1.106-1.187v-52.94H30.282v104.42h36.017c.78 5.601 3.73 12.611 8.534 19.456zm83.214 11.178c1.215-4.656 5.733-24.163.148-38.127-5.856-14.64-15.531-34.252-22.94-42.718-2.417-2.762-5.264-4.24-8.465-4.396-4.581-.223-8.444 2.437-9.951 3.645-2.04-1.967-5.052-2.912-8.225-2.577V12.724c0-6.893-5.608-12.5-12.5-12.5H32.782c-6.892 0-12.5 5.607-12.5 12.5v62.59c-3.71-1.699-7.113-2.116-10.133-1.195-4.322 1.317-6.1 4.797-6.288 5.19l-.558 1.181.636 1.134c.022.04 2.197 3.96 3.292 10.808 1.012 6.317 1.289 16.498-3.143 29.132-8.04 22.931 1.542 41.336 4.724 46.515L.002 182.057l4.228 2.667 10.558-16.754-.97-1.365c-.136-.19-13.449-19.32-5.01-43.387 7.85-22.387 2.322-37.95.197-42.624a5.718 5.718 0 0 1 2.603-1.692c2.245-.683 5.21 0 8.573 1.977l.102-.172v60.35c0 6.893 5.608 12.5 12.5 12.5h45.933c3.831 4.487 8.465 8.712 13.791 12.205-3.237 5.228-13.004 19.31-24.498 19.798-16.83.716-25.038 14.316-25.38 14.894L46.931 203c.29-.484 7.232-11.847 21.29-12.445 14.052-.598 25-16.376 28.587-22.223.84.456 1.692.9 2.563 1.315 10.306 4.922 16.725 11.51 20.294 16.167 3.884 5.07 5.342 9.03 5.357 9.068l2.353-.846 2.356-.839c-.256-.718-6.517-17.704-28.206-28.062-21.407-10.224-31.93-32.4-30.291-40.587 1.64-8.202 6.513-9.785 6.681-9.838l-.039-.145 9.78 15.808 4.251-2.63-34.641-55.997a6.014 6.014 0 0 1-.721-4.576 6.008 6.008 0 0 1 2.725-3.745 6.007 6.007 0 0 1 4.575-.722 6.011 6.011 0 0 1 3.746 2.726l22.39 36.6 4.267-2.609-9.438-15.426c1.213-1.302 3.941-3.797 7.376-4.227 1.14-.133 3.51.98 4.782 3.39a2833.37 2833.37 0 0 1 6.19 11.786l4.433-2.313s-2.283-4.378-4.99-9.513c1.166-.748 2.886-1.642 5.22-2.328 2.192-.646 5.008-.27 6.136 1.697 2.692 4.693 5.918 10.892 5.95 10.954l4.437-2.307c-.028-.053-2.357-4.527-4.732-8.797.299-.265 3.482-3.024 6.962-2.846 1.807.094 3.416.975 4.92 2.693 6.708 7.667 16.175 26.571 22.06 41.282 5.606 14.013-.518 35.661-.58 35.88l-.282.974 8.476 15.894 4.413-2.353-7.533-14.125z" mask="url(#b)"/>
    </g>
</svg>
