<svg xmlns="http://www.w3.org/2000/svg" xmlns:xlink="http://www.w3.org/1999/xlink" width="112" height="112" viewBox="0 0 112 112">
    <defs>
        <path id="a" d="M0 0v100h100V0z"/>
    </defs>
    <g fill="none" fill-rule="evenodd">
        <g transform="translate(5 6)">
            <mask id="b" fill="#fff">
                <use xlink:href="#a"/>
            </mask>
            <path fill="#4A4A4A" d="M67.747 3.24a2.345 2.345 0 1 0-1.664 4.384C83.565 14.268 95.313 31.297 95.313 50c0 24.985-20.327 45.313-45.313 45.313S4.687 74.985 4.687 50C4.687 25.016 25.014 4.688 50 4.688c1.506 0 3.037.075 4.553.223a2.344 2.344 0 0 0 .458-4.666A51.844 51.844 0 0 0 50 0C22.43 0 0 22.43 0 50s22.43 50 50 50 50-22.43 50-50c0-20.637-12.961-39.43-32.253-46.76" mask="url(#b)"/>
        </g>
        <path fill="#4A4A4A" d="M42.48 76.299a2.344 2.344 0 0 0 3.2.858l33.13-19.124a2.344 2.344 0 0 0 0-4.06L45.68 34.847a2.343 2.343 0 0 0-3.515 2.03v27.007a2.345 2.345 0 0 0 4.688 0V40.935L72.95 56.003 43.337 73.097a2.344 2.344 0 0 0-.858 3.202"/>
    </g>
</svg>
