<svg xmlns="http://www.w3.org/2000/svg" xmlns:xlink="http://www.w3.org/1999/xlink" width="64" height="64" viewBox="0 0 64 64">
    <defs>
        <path id="a" d="M0 0h64v64H0z"/>
    </defs>
    <g fill="none" fill-rule="evenodd">
        <g>
            <mask id="b" fill="#fff">
                <use xlink:href="#a"/>
            </mask>
            <path fill="#4A4A4A" d="M46.318 3.373a1.499 1.499 0 1 0-1.344 2.682C54.86 11.009 61 20.95 61 31.999 61 47.99 47.99 61 32 61S3 47.99 3 31.999c0-15.99 13.01-29 29-29 1.96 0 3.92.197 5.823.585a1.5 1.5 0 0 0 .6-2.94A32.235 32.235 0 0 0 32-.001c-17.645 0-32 14.355-32 32S14.355 64 32 64c17.644 0 32-14.356 32-32.001 0-12.191-6.776-23.16-17.682-28.626" mask="url(#b)"/>
        </g>
        <path fill="#4A4A4A" d="M20.476 35.856a1.5 1.5 0 0 0-2.791 1.103c2.16 5.466 7.095 9.143 12.815 9.695v5.853h-2.63a1.5 1.5 0 1 0 0 3h8.258a1.5 1.5 0 0 0 0-3H33.5v-5.853c5.72-.553 10.654-4.23 12.814-9.695a1.5 1.5 0 0 0-2.791-1.103c-1.891 4.786-6.415 7.879-11.525 7.879-5.108 0-9.631-3.093-11.522-7.879"/>
        <path fill="#4A4A4A" d="M37.372 31.78a5.38 5.38 0 0 1-5.374 5.373 5.378 5.378 0 0 1-5.373-5.372V17.84a5.378 5.378 0 0 1 5.373-5.372 5.38 5.38 0 0 1 5.374 5.372v13.94zM31.998 9.469c-4.617 0-8.373 3.755-8.373 8.372v13.94c0 4.617 3.756 8.373 8.373 8.373 4.617 0 8.374-3.756 8.374-8.372V17.84c0-4.617-3.757-8.372-8.374-8.372z"/>
    </g>
</svg>
