<svg xmlns="http://www.w3.org/2000/svg" width="36" height="36" viewBox="0 0 36 36">
    <g fill="#4A4A4A" fill-rule="nonzero">
        <path d="M32.31 19.448l.009-.09 3.459-.812.122-.029-1.979-8.439-.029-.122-3.526.827-.047-.078a14.45 14.45 0 0 0-2.226-2.819l-.063-.062 1.582-3.229L21.828.779l-.112-.055-1.566 3.193-.09-.013a14.678 14.678 0 0 0-4.016 0l-.09.013L14.388.724 6.602 4.539l-.112.055 1.582 3.229-.064.063a14.555 14.555 0 0 0-2.226 2.819l-.047.078-3.525-.827-2.009 8.562 3.581.841.009.089c.12 1.278.415 2.536.874 3.737l.032.085L1.8 25.593l5.504 6.86 2.942-2.36.076.049a14.457 14.457 0 0 0 3.245 1.548l.086.028V35.5h8.795v-3.782l.086-.029a14.348 14.348 0 0 0 3.245-1.547l.076-.049 2.942 2.36 5.503-6.86-2.896-2.323.033-.085c.458-1.202.753-2.459.873-3.737zm-6.382 8.196l-.604.438a12.36 12.36 0 0 1-4.106 1.958l-.726.195v3.31h-4.883v-3.31l-.726-.195a12.364 12.364 0 0 1-4.107-1.958l-.604-.438-2.566 2.06-3.057-3.808 2.538-2.038-.311-.691a12.222 12.222 0 0 1-1.087-4.63l-.027-.745-3.111-.73 1.114-4.754 2.983.7.094.021.354-.67a12.448 12.448 0 0 1 2.819-3.576l.565-.493-1.374-2.8 4.384-2.152 1.362 2.776.741-.149a12.63 12.63 0 0 1 4.916 0l.739.149 1.362-2.776 4.384 2.152-1.374 2.8.564.492a12.463 12.463 0 0 1 2.82 3.577l.353.669 3.077-.722 1.114 4.754-3.019.708-.093.022-.027.745a12.236 12.236 0 0 1-1.087 4.631l-.311.69 2.538 2.038-3.057 3.808-2.564-2.058z"/>
        <path d="M18.05 13.107a5.175 5.175 0 0 0-5.17 5.169 5.175 5.175 0 0 0 5.17 5.169 5.175 5.175 0 0 0 5.17-5.169 5.175 5.175 0 0 0-5.17-5.169zm0 8.383a3.217 3.217 0 0 1-3.213-3.214 3.216 3.216 0 0 1 3.213-3.214 3.216 3.216 0 0 1 3.213 3.214 3.216 3.216 0 0 1-3.213 3.214z"/>
    </g>
</svg>
