<svg xmlns="http://www.w3.org/2000/svg" width="24" height="24" viewBox="0 0 24 24">
    <g fill="#4A4A4A" fill-rule="evenodd">
        <path d="M13.656 22.8a.9.9 0 0 1-.636-.263L6.632 16.15H1.9a.9.9 0 0 1-.9-.901V8.552a.9.9 0 0 1 .9-.9h.79a.9.9 0 0 1 .11 1.794v4.903h4.205a.9.9 0 0 1 .636.264l5.115 5.115V4.073L7.641 9.189a.901.901 0 0 1-1.273-1.274l6.652-6.651A.895.895 0 0 1 14 1.07a.896.896 0 0 1 .556.83v20a.898.898 0 0 1-.9.9M19.608 19.574a.899.899 0 0 1-.602-1.57 8.128 8.128 0 0 0 2.709-6.04 8.128 8.128 0 0 0-2.71-6.042.9.9 0 0 1 1.204-1.34 9.935 9.935 0 0 1 3.306 7.381 9.936 9.936 0 0 1-3.306 7.381.899.899 0 0 1-.601.23"/>
        <path d="M16.994 15.498a.901.901 0 0 1-.396-1.709 2.022 2.022 0 0 0 1.143-1.826 2.02 2.02 0 0 0-1.143-1.826.901.901 0 0 1 .792-1.618 3.812 3.812 0 0 1 2.151 3.444 3.811 3.811 0 0 1-2.15 3.443.893.893 0 0 1-.397.092"/>
    </g>
</svg>
