<svg xmlns="http://www.w3.org/2000/svg" width="36" height="36" viewBox="0 0 36 36">
    <path fill="#4A4A4A" fill-rule="evenodd" d="M18.366 35c-6.792 0-12.695-1.377-15.04-3.509a1 1 0 0 1-.318-.863c.405-3.26 2.83-9.568 9.1-10.114a.996.996 0 0 1 .985.554c1.37 2.787 2.98 4.386 4.416 4.386.609 0 1.25-.282 1.903-.837a1 1 0 1 1 1.295 1.524c-1.025.871-2.101 1.313-3.198 1.313-2.12 0-4.192-1.72-5.882-4.863-4.796.843-6.206 6.027-6.543 7.744C7.009 31.674 11.75 33 18.366 33c6.606 0 11.344-1.323 13.272-2.661-.408-1.964-2.273-8.385-8.67-7.95A1.002 1.002 0 0 1 22 20.956c1.46-3.021 2.403-7.082 2.403-10.346 0-5.121-2.255-7.61-6.894-7.61-4.64 0-6.895 2.489-6.895 7.61 0 1.84.31 4.012.873 6.115a1 1 0 1 1-1.932.517c-.616-2.3-.941-4.593-.941-6.632 0-6.197 3.159-9.61 8.895-9.61 5.735 0 8.894 3.413 8.894 9.61 0 3.1-.741 6.723-1.975 9.791 6.265.515 8.815 6.74 9.292 10.215.043.326-.075.654-.32.875C31.058 33.623 25.156 35 18.367 35"/>
</svg>
