<svg xmlns="http://www.w3.org/2000/svg" width="36" height="36" viewBox="0 0 36 36">
    <path fill="#4A4A4A" fill-rule="evenodd" d="M12.604 36c-.4 0-.778-.242-.933-.639L2.067 10.6a1.004 1.004 0 0 1 .114-.937c3.313-4.715 8.238-4.881 13.002-5.042C19.655 4.47 23.88 4.327 26.62.426a.995.995 0 0 1 1.255-.325.997.997 0 0 1 .521 1.185l-2.779 9.301 7.465 3.345a1.001 1.001 0 0 1 .409 1.487c-3.313 4.716-8.24 4.883-13.005 5.043-3.183.107-6.189.209-8.653 1.619a1 1 0 1 1-.993-1.736c2.895-1.656 6.292-1.771 9.578-1.881 4.073-.138 7.94-.269 10.666-3.236l-7.085-3.175a1 1 0 0 1-.549-1.199l1.925-6.442C22.39 6.379 18.776 6.501 15.25 6.62c-4.303.146-8.376.283-11.119 3.771l9.406 24.248A1.001 1.001 0 0 1 12.604 36"/>
</svg>
