<svg xmlns="http://www.w3.org/2000/svg" width="36" height="36" viewBox="0 0 36 36">
    <g fill="#4A4A4A" fill-rule="evenodd">
        <path d="M18 34C9.178 34 2 26.822 2 18S9.178 2 18 2a1 1 0 0 1 1 1v13.273l7.608-4.363a1 1 0 0 1 .995 1.735l-9.105 5.222A.999.999 0 0 1 17 18V4.035C9.746 4.55 4 10.617 4 18c0 7.72 6.28 14 14 14s14-6.28 14-14c0-2.341-.59-4.659-1.708-6.704a1.002 1.002 0 0 1 .398-1.358 1.001 1.001 0 0 1 1.357.399A16.023 16.023 0 0 1 34 18c0 8.822-7.178 16-16 16"/>
        <path d="M27.237 7.18a.996.996 0 0 1-.614-.21 14.141 14.141 0 0 0-2.692-1.655 1 1 0 0 1 .848-1.811 16.114 16.114 0 0 1 3.073 1.888 1 1 0 0 1-.615 1.789"/>
    </g>
</svg>
