<svg xmlns="http://www.w3.org/2000/svg" xmlns:xlink="http://www.w3.org/1999/xlink" width="36" height="36" viewBox="0 0 36 36">
    <defs>
        <path id="a" d="M0 35.99V0h36.097v35.99z"/>
    </defs>
    <g fill="none" fill-rule="evenodd">
        <mask id="b" fill="#fff">
            <use xlink:href="#a"/>
        </mask>
        <path fill="#4A4A4A" d="M31.278 7.922a16.335 16.335 0 0 0-11.63-4.818c-4.078 0-7.92 1.49-10.938 4.19L6.266 4.85V1a1 1 0 1 0-2 0v3.265H1a1 1 0 1 0 0 2h3.853l14.042 14.042a.997.997 0 0 0 1.414 0 1 1 0 0 0 0-1.414l-2.477-2.477c1.39-.804 3.2-.627 4.39.563a3.612 3.612 0 0 1 1.066 2.574c0 .972-.378 1.885-1.066 2.57a3.644 3.644 0 0 1-5.146 0 3.62 3.62 0 0 1-1.044-2.967 1 1 0 0 0-.885-1.103 1.009 1.009 0 0 0-1.103.885 5.612 5.612 0 0 0 1.617 4.6 5.617 5.617 0 0 0 3.987 1.649 5.624 5.624 0 0 0 3.988-1.648 5.598 5.598 0 0 0 1.652-3.986 5.603 5.603 0 0 0-1.652-3.99c-1.973-1.97-5.048-2.158-7.248-.591l-2.654-2.654c3.667-3 9.1-2.793 12.523.625a9.283 9.283 0 0 1 2.738 6.609 9.276 9.276 0 0 1-2.738 6.606 9.286 9.286 0 0 1-6.61 2.739 9.277 9.277 0 0 1-6.605-2.74 9.313 9.313 0 0 1-1.691-10.912.999.999 0 1 0-1.775-.92 11.305 11.305 0 0 0 2.05 13.247 11.264 11.264 0 0 0 8.022 3.325c3.03 0 5.88-1.181 8.023-3.325a11.267 11.267 0 0 0 3.324-8.02c0-3.03-1.18-5.88-3.324-8.024-4.201-4.2-10.898-4.402-15.351-.625l-2.196-2.195a14.336 14.336 0 0 1 9.525-3.604c3.858 0 7.486 1.503 10.215 4.232a14.356 14.356 0 0 1 4.233 10.217c0 3.859-1.504 7.488-4.233 10.217-5.632 5.63-14.798 5.63-20.432 0-4.793-4.796-5.597-12.396-1.913-18.071a1 1 0 1 0-1.678-1.09c-4.195 6.462-3.28 15.115 2.177 20.575a16.398 16.398 0 0 0 11.63 4.807c4.213 0 8.424-1.602 11.63-4.807a16.341 16.341 0 0 0 4.819-11.631 16.34 16.34 0 0 0-4.82-11.631" mask="url(#b)"/>
    </g>
</svg>
