<svg xmlns="http://www.w3.org/2000/svg" width="36" height="36" viewBox="0 0 36 36">
    <defs>
        <path id="a" d="M0 27.952V0h33.999v27.952z"/>
    </defs>
    <g fill="none" fill-rule="evenodd">
        <path fill="#4A4A4A" d="M27.724 7.474c.04.058 1.73-.555 3.644-1.474-.074 1.302-.676 3.199-1.937 3.872 1.43-.04 2.613-.155 3.569-.213-.508 1.467-2.308 2.672-3.11 3.181 0 7.973-5.948 17.16-16.818 17.16-3.345 0-6.457-.991-9.072-2.707.474.054.933.074 1.427.074 2.76 0 5.306-.953 7.338-2.577-2.6-.058-4.778-1.794-5.528-4.183.365.059.732.093 1.12.093.528 0 1.058-.074 1.553-.205-2.71-.558-4.737-2.987-4.737-5.917v-.075a5.888 5.888 0 0 0 2.669.766 6.066 6.066 0 0 1-2.635-5.023c0-1.12.292-2.15.806-3.044 2.907 3.66 7.282 6.049 12.184 6.31a6.998 6.998 0 0 1-.146-1.381c0-3.324 2.634-6.03 5.912-6.03 1.428 0 2.74.514 3.76 1.373"/>
    </g>
</svg>
