<svg xmlns="http://www.w3.org/2000/svg" width="64" height="64" viewBox="0 0 64 64">
    <g fill="#4A4A4A" fill-rule="evenodd">
        <path d="M32 64C14.355 64 0 49.645 0 32S14.355 0 32 0c1.062 0 2.14.053 3.207.157a1.501 1.501 0 0 1-.293 2.987C33.944 3.048 32.964 3 32 3 16.009 3 3 16.01 3 32s13.009 29 29 29 29-13.01 29-29c0-11.97-7.518-22.869-18.708-27.121a1.501 1.501 0 0 1 1.066-2.805C55.705 6.766 64 18.792 64 32c0 17.645-14.355 32-32 32"/>
        <path d="M25.288 45.741a1.5 1.5 0 0 1-.751-2.799l18.95-10.94-16.7-9.644v14.687a1.5 1.5 0 0 1-3 0V19.76a1.498 1.498 0 0 1 2.25-1.299l21.2 12.242a1.5 1.5 0 1 1 0 2.598l-21.2 12.24a1.491 1.491 0 0 1-.75.2"/>
    </g>
</svg>
