<svg xmlns="http://www.w3.org/2000/svg" width="36" height="36" viewBox="0 0 36 36">
    <path fill="#4A4A4A" fill-rule="evenodd" d="M31.456 15.132c-3.232 4.236-3.582 3.841-.92 6.289 2.57 2.35 3.104 3.482 3.186 3.63 0 0 1.066 1.84-1.183 1.855l-4.264.068c-.918.18-2.133-.641-2.133-.641-1.6-1.084-3.1-3.894-4.266-3.532 0 0-1.198.377-1.168 2.907.017.542-.248.838-.248.838s-.3.313-.882.36H17.66c-4.215.267-7.929-3.563-7.929-3.563s-4.065-4.138-7.632-12.4c-.233-.544.015-.805.015-.805s.251-.311.952-.311l4.564-.035c.433.066.733.297.733.297s.266.18.401.525a33.083 33.083 0 0 0 1.714 3.515c1.666 3.384 2.801 3.959 3.452 3.613 0 0 .849-.51.664-4.6-.066-1.476-.484-2.15-.484-2.15-.383-.51-1.1-.658-1.414-.707-.25-.033.164-.624.716-.887.816-.394 2.264-.41 3.981-.394 1.35.017 1.732.1 2.248.214 1.586.379 1.05 1.824 1.05 5.305 0 1.118-.215 2.678.602 3.186.35.23 1.214.033 3.348-3.546 0 0 .999-1.711 1.78-3.697.136-.36.418-.508.418-.508s.267-.148.634-.1l4.796-.031c1.452-.182 1.685.476 1.685.476.25.673-.534 2.25-2.499 4.829"/>
</svg>
