<svg xmlns="http://www.w3.org/2000/svg" width="107" height="163" viewBox="0 0 107 163">
    <g fill="#D7D7D7" fill-rule="evenodd">
        <path d="M78.462 52.609c1.238-1.835-10.266 1.072-16.266.072-9.23-1.538-7.333-8.667-18.666-9.334-11.577-.68-18.628 3.385-17.78 5.229 2.212 4.814 5.79 9.176 11.74 11.993 7.322 3.469 12.164 9.113 13.285 15.484l.517 2.934c.428 2.474 3.738 2.194 3.891 0l.517-2.934c1.12-6.371 5.963-12.015 13.286-15.483 3.146-1.49 6.606-3.704 9.476-7.961"/>
        <path d="M71.52 92.344c12.984 5.05 20.813 20.776 21.061 42.17h-8.092c-3.495-13.885-16.053-24.167-31.022-24.167-14.968 0-27.527 10.282-31.022 24.167h-8.092c.248-21.394 8.078-37.12 21.062-42.17 6.588-2.563 10.64-7.394 10.837-12.923.205-5.712-3.786-11.07-10.673-14.333C23.47 59.352 17.692 47.94 17.07 28.333h72.794c-.622 19.606-6.4 31.02-18.508 36.755-6.888 3.263-10.878 8.621-10.674 14.333.198 5.53 4.249 10.36 10.838 12.923m30.415 50.408v11.857c0 1.785-1.577 3.238-3.514 3.238H8.514c-1.938 0-3.514-1.453-3.514-3.238v-11.857c0-1.785 1.576-3.238 3.514-3.238h89.907c1.937 0 3.514 1.453 3.514 3.238M5 20.095V8.238C5 6.452 6.576 5 8.514 5h89.907c1.937 0 3.514 1.452 3.514 3.238v11.857c0 1.785-1.577 3.238-3.514 3.238H8.514C6.576 23.333 5 21.88 5 20.095m68.497 49.512c13.851-6.562 20.68-19.734 21.362-41.274h3.562c4.694 0 8.514-3.696 8.514-8.238V8.238c0-4.543-3.82-8.238-8.514-8.238H8.514C3.819 0 0 3.695 0 8.238v11.857c0 4.542 3.819 8.238 8.514 8.238h3.562c.681 21.54 7.511 34.712 21.362 41.274 5.026 2.381 7.948 5.982 7.818 9.635-.124 3.471-2.986 6.626-7.654 8.442-14.969 5.822-23.988 23.29-24.248 46.83h-.84c-4.695 0-8.514 3.695-8.514 8.238v11.857c0 4.543 3.819 8.238 8.514 8.238h89.907c4.694 0 8.514-3.695 8.514-8.238v-11.857c0-4.543-3.82-8.238-8.514-8.238h-.84c-.261-23.54-9.279-41.008-24.249-46.83-4.668-1.816-7.529-4.97-7.653-8.442-.131-3.653 2.792-7.254 7.818-9.635"/>
        <path d="M49.697 84.347a2.5 2.5 0 1 0 0 5 2.5 2.5 0 0 0 0-5M57.197 88.847a2.5 2.5 0 1 0 0 5 2.5 2.5 0 0 0 0-5M48.197 93.847a2.5 2.5 0 1 0 0 5 2.5 2.5 0 0 0 0-5M57.197 100.847a2.5 2.5 0 1 0 0 5 2.5 2.5 0 0 0 0-5M68.697 109.847a2.5 2.5 0 1 0 0-5 2.5 2.5 0 0 0 0 5M40.697 104.847a2.5 2.5 0 1 0 0 5 2.5 2.5 0 0 0 0-5"/>
    </g>
</svg>
