<svg xmlns="http://www.w3.org/2000/svg" xmlns:xlink="http://www.w3.org/1999/xlink" width="36" height="36" viewBox="0 0 36 36">
    <defs>
        <path id="a" d="M0 17V0h27.143v34H0z"/>
    </defs>
    <g fill="none" fill-rule="evenodd">
        <g transform="translate(4 1)">
            <mask id="b" fill="#fff">
                <use xlink:href="#a"/>
            </mask>
            <path fill="#3D9B1F" d="M26.876 7.009L20.78.439a1 1 0 0 0-1.466 1.359l5.829 6.283V28.31A3.694 3.694 0 0 1 21.454 32H5.689A3.693 3.693 0 0 1 2 28.31V5.689a3.693 3.693 0 0 1 3.689-3.69h8.5v7.69a1 1 0 0 0 1 1h7.143a1 1 0 1 0 0-2h-6.143V.999a1 1 0 0 0-1-1h-9.5A5.695 5.695 0 0 0 0 5.69v22.62A5.696 5.696 0 0 0 5.689 34h15.765a5.696 5.696 0 0 0 5.689-5.69V7.69c0-.252-.096-.495-.267-.68" mask="url(#b)"/>
        </g>
        <path fill="#3D9B1F" d="M17.122 20.587a1 1 0 0 0-1 1v6.117a1 1 0 0 0 1 1h3.051a1 1 0 1 0 0-2h-2.05v-5.117a1 1 0 0 0-1-1M14.42 20.907a1 1 0 0 0-1.404.166L11.41 23.11l-1.605-2.036a1 1 0 0 0-1.571 1.238l1.903 2.412-1.903 2.413a1.001 1.001 0 0 0 1.57 1.238l1.606-2.036 1.606 2.036a.998.998 0 1 0 1.57-1.238l-1.902-2.413 1.902-2.412a1 1 0 0 0-.166-1.404M24.27 26.942a.64.64 0 0 1-.552-.305 1 1 0 0 0-1.705 1.045 2.627 2.627 0 0 0 2.258 1.26 2.637 2.637 0 0 0 2.642-2.625 2.637 2.637 0 0 0-2.643-2.625.634.634 0 0 1-.642-.625c0-.345.288-.625.642-.625.207 0 .396.094.52.258a.999.999 0 1 0 1.598-1.203 2.663 2.663 0 0 0-2.118-1.055 2.637 2.637 0 0 0-2.642 2.625 2.637 2.637 0 0 0 2.642 2.625c.355 0 .643.28.643.625a.634.634 0 0 1-.643.625"/>
    </g>
</svg>
